<svg xmlns="http://www.w3.org/2000/svg" viewBox="0 0 512 512" width="512" height="512">
  <!-- BG -->
  <rect width="512" height="512" rx="96" fill="#08080f"/>

  <!-- ═══ ROBOT GLADIATOR HELMET ═══ -->
  <g transform="translate(256,240)">

    <!-- Helmet base / dome -->
    <path d="
      M-120,20
      L-130,-40
      L-120,-100
      L-90,-145
      L-40,-170
      L0,-178
      L40,-170
      L90,-145
      L120,-100
      L130,-40
      L120,20
      Z
    " fill="#ffffff"/>

    <!-- Helmet side panels (darker inset) -->
    <path d="
      M-115,15
      L-125,-38
      L-116,-95
      L-86,-138
      L-40,-162
      L-20,-168
      L-20,-145
      L-55,-125
      L-80,-95
      L-90,-40
      L-85,15
      Z
    " fill="#d0d0d0"/>
    <path d="
      M115,15
      L125,-38
      L116,-95
      L86,-138
      L40,-162
      L20,-168
      L20,-145
      L55,-125
      L80,-95
      L90,-40
      L85,15
      Z
    " fill="#d0d0d0"/>

    <!-- Center ridge / mohawk crest -->
    <path d="
      M-12,-178
      L0,-210
      L12,-178
      L8,-100
      L-8,-100
      Z
    " fill="#ffffff"/>
    <rect x="-6" y="-210" width="12" height="130" rx="3" fill="#e8e8e8"/>

    <!-- Visor area (dark slit) -->
    <path d="
      M-88,-50
      L-90,-20
      L-70,10
      L70,10
      L90,-20
      L88,-50
      Z
    " fill="#08080f"/>

    <!-- Visor glass / eyes -->
    <rect x="-72" y="-40" width="56" height="22" rx="3" fill="#ffffff" opacity="0.95"/>
    <rect x="16" y="-40" width="56" height="22" rx="3" fill="#ffffff" opacity="0.95"/>

    <!-- Visor bridge (nose guard) -->
    <rect x="-8" y="-45" width="16" height="52" rx="2" fill="#ffffff"/>

    <!-- Under-visor vent lines -->
    <rect x="-60" y="0" width="120" height="3" rx="1" fill="#ffffff" opacity="0.3"/>

    <!-- Cheek armor plates -->
    <path d="
      M-120,20
      L-110,70
      L-80,90
      L-60,70
      L-70,20
      Z
    " fill="#ffffff"/>
    <path d="
      M120,20
      L110,70
      L80,90
      L60,70
      L70,20
      Z
    " fill="#ffffff"/>

    <!-- Cheek plate lines -->
    <line x1="-105" y1="35" x2="-70" y2="35" stroke="#c0c0c0" stroke-width="2"/>
    <line x1="-100" y1="50" x2="-72" y2="50" stroke="#c0c0c0" stroke-width="2"/>
    <line x1="-95" y1="65" x2="-75" y2="65" stroke="#c0c0c0" stroke-width="2"/>
    
    <line x1="105" y1="35" x2="70" y2="35" stroke="#c0c0c0" stroke-width="2"/>
    <line x1="100" y1="50" x2="72" y2="50" stroke="#c0c0c0" stroke-width="2"/>
    <line x1="95" y1="65" x2="75" y2="65" stroke="#c0c0c0" stroke-width="2"/>

    <!-- Chin / jaw plate -->
    <path d="
      M-60,70
      L-40,100
      L-10,110
      L10,110
      L40,100
      L60,70
      L30,80
      L-30,80
      Z
    " fill="#e0e0e0"/>

    <!-- Chin center line -->
    <line x1="0" y1="80" x2="0" y2="108" stroke="#b0b0b0" stroke-width="2"/>

    <!-- Chin vents -->
    <rect x="-25" y="88" width="16" height="3" rx="1" fill="#08080f" opacity="0.5"/>
    <rect x="9" y="88" width="16" height="3" rx="1" fill="#08080f" opacity="0.5"/>
    <rect x="-20" y="96" width="10" height="3" rx="1" fill="#08080f" opacity="0.4"/>
    <rect x="10" y="96" width="10" height="3" rx="1" fill="#08080f" opacity="0.4"/>

    <!-- Ear / antenna modules -->
    <rect x="-142" y="-60" width="18" height="50" rx="4" fill="#ffffff"/>
    <rect x="-142" y="-60" width="18" height="14" rx="4" fill="#e0e0e0"/>
    <rect x="-139" y="-42" width="3" height="28" fill="#c0c0c0"/>
    
    <rect x="124" y="-60" width="18" height="50" rx="4" fill="#ffffff"/>
    <rect x="124" y="-60" width="18" height="14" rx="4" fill="#e0e0e0"/>
    <rect x="136" y="-42" width="3" height="28" fill="#c0c0c0"/>

    <!-- Top bolts / rivets -->
    <circle cx="-50" cy="-155" r="5" fill="#d0d0d0"/>
    <circle cx="-50" cy="-155" r="2" fill="#a0a0a0"/>
    <circle cx="50" cy="-155" r="5" fill="#d0d0d0"/>
    <circle cx="50" cy="-155" r="2" fill="#a0a0a0"/>

    <!-- Forehead bolts -->
    <circle cx="-75" cy="-110" r="4" fill="#d0d0d0"/>
    <circle cx="-75" cy="-110" r="1.5" fill="#a0a0a0"/>
    <circle cx="75" cy="-110" r="4" fill="#d0d0d0"/>
    <circle cx="75" cy="-110" r="1.5" fill="#a0a0a0"/>

    <!-- Temple screws -->
    <circle cx="-100" cy="-70" r="3.5" fill="#c8c8c8"/>
    <line x1="-103" y1="-70" x2="-97" y2="-70" stroke="#999" stroke-width="1.5"/>
    <circle cx="100" cy="-70" r="3.5" fill="#c8c8c8"/>
    <line x1="97" y1="-70" x2="103" y2="-70" stroke="#999" stroke-width="1.5"/>

    <!-- Helmet top panel lines -->
    <path d="M-60,-165 Q0,-185 60,-165" fill="none" stroke="#c8c8c8" stroke-width="1.5"/>
    <path d="M-80,-140 Q0,-165 80,-140" fill="none" stroke="#d8d8d8" stroke-width="1"/>

  </g>
</svg>
